<svg width="21" height="21" viewBox="0 0 21 21" fill="none" xmlns="http://www.w3.org/2000/svg">
<path d="M18.6891 6.32275V14.5409C18.6891 15.0858 18.4727 15.6083 18.0874 15.9936C17.7021 16.3789 17.1795 16.5954 16.6346 16.5954H4.30746C3.76256 16.5954 3.23998 16.3789 2.85469 15.9936C2.46939 15.6083 2.25293 15.0858 2.25293 14.5409V6.32275" stroke="#170F49" stroke-width="1.38064" stroke-linecap="round" stroke-linejoin="round"/>
<path d="M18.6891 6.32259C18.6891 5.7777 18.4727 5.25512 18.0874 4.86982C17.7021 4.48452 17.1795 4.26807 16.6346 4.26807H4.30746C3.76256 4.26807 3.23998 4.48452 2.85469 4.86982C2.46939 5.25512 2.25293 5.7777 2.25293 6.32259L9.38213 10.7741C9.70866 10.9781 10.086 11.0864 10.471 11.0864C10.8561 11.0864 11.2334 10.9781 11.5599 10.7741L18.6891 6.32259Z" stroke="#170F49" stroke-width="1.38064" stroke-linecap="round" stroke-linejoin="round"/>
</svg>
