<svg width="106" height="857" viewBox="0 0 106 857" fill="none" xmlns="http://www.w3.org/2000/svg">
<path d="M70.1398 345.18C68.8684 345.765 67.682 346.594 66.6544 347.615C63.9672 350.228 62.7334 353.394 63.8987 354.686C65.0639 355.978 68.1867 354.906 70.8738 352.293C71.9228 351.295 72.7971 350.121 73.4428 348.842C73.7383 348.228 73.6788 347.556 73.2912 347.127L71.7775 345.449C71.3917 345.019 70.7491 344.914 70.1398 345.18Z" fill="#D5D6DB"/>
<path d="M57.0267 320.301C56.1048 320.725 55.2445 321.326 54.4993 322.067C52.5513 323.961 51.6559 326.257 52.5001 327.193C53.3444 328.129 55.6096 327.351 57.5573 325.457C58.3179 324.733 58.9517 323.881 59.42 322.954C59.6339 322.509 59.5907 322.022 59.3098 321.711L58.2137 320.496C57.9342 320.184 57.4685 320.107 57.0267 320.301Z" fill="#D5D6DB"/>
<path d="M44.6971 324.106C44.4775 324.129 44.2598 324.235 44.0864 324.404L39.5102 328.856C39.1272 329.227 39.0584 329.797 39.3569 330.13C39.4252 330.206 39.5097 330.265 39.6057 330.304L54.2897 336.343L69.549 321.499L44.6971 324.106Z" fill="#E960F5"/>
<path d="M99.6638 311.235L58.1529 350.977L32.3017 368.067L18.5512 373.967L16.4443 371.663L85.8269 306.363C87.8934 304.411 90.3407 302.959 92.9215 302.153C94.0529 301.806 95.1974 301.599 96.3282 301.535C97.3293 301.471 98.3077 301.553 99.2341 301.778C100.269 302.037 102.074 301.703 102.84 302.498C102.842 302.496 105.062 306.426 99.6638 311.235Z" fill="#E1E6E9"/>
<path d="M58.0678 347.132L44.0336 383.996C43.8684 384.507 44.1231 384.984 44.6021 385.062C44.8961 385.109 45.2212 384.995 45.4661 384.758L50.0358 380.344C50.9147 379.494 51.6441 378.499 52.179 377.42L82.7098 322.435L58.0678 347.132Z" fill="#E960F5"/>
<path d="M5.90315 356.566C5.53645 356.524 5.13991 356.673 4.83863 356.966L1.05577 360.649C0.54027 361.151 0.448627 361.92 0.850947 362.368C0.927557 362.453 1.01892 362.522 1.122 362.573L15.1885 369.603L26.3631 358.909L5.90315 356.566Z" fill="#E960F5"/>
<path d="M19.6651 370.613L14.9621 381.054C14.8926 381.204 14.9478 381.362 15.0853 381.407C15.1844 381.439 15.3039 381.403 15.3894 381.316L18.9195 377.911C18.9469 377.885 18.9704 377.854 18.9882 377.821L26.2096 364.304L19.6651 370.613Z" fill="#E960F5"/>
<path d="M95.5858 302.147C94.4192 302.212 93.2386 302.427 92.0716 302.788C91.2366 304.642 90.8585 306.604 90.975 308.477C91.0301 308.847 91.3799 309.045 91.7565 308.921C91.8735 308.882 91.9841 308.815 92.0778 308.725L98.5851 302.406C97.6286 302.169 96.6188 302.082 95.5858 302.147Z" fill="#E960F5"/>
<path d="M81.1084 314.267L85.3735 310.132L91.4525 316.85L87.1874 320.985L81.1084 314.267Z" fill="#D5D6DB"/>
<path d="M78.6702 317.882C78.1568 318.38 78.0641 319.144 78.4637 319.588L79.1111 320.306C79.5277 320.732 80.2707 320.661 80.7706 320.148C81.2464 319.659 81.3337 318.939 80.97 318.501L80.3226 317.783C79.9233 317.34 79.1838 317.384 78.6702 317.882Z" fill="#3A556A"/>
<path d="M74.847 321.488C74.3335 321.987 74.2409 322.751 74.6405 323.194L75.2879 323.912C75.7045 324.338 76.4474 324.268 76.9474 323.754C77.4231 323.265 77.5104 322.546 77.1467 322.107L76.4993 321.389C76.0998 320.946 75.3603 320.991 74.847 321.488Z" fill="#3A556A"/>
<path d="M71.0236 325.096C70.5109 325.595 70.4189 326.358 70.8182 326.8L71.4656 327.519C71.8822 327.945 72.6252 327.874 73.1251 327.361C73.6009 326.872 73.6882 326.152 73.3245 325.714L72.6771 324.996C72.2775 324.552 71.5373 324.597 71.0236 325.096Z" fill="#3A556A"/>
<path d="M67.2013 328.702C66.6886 329.201 66.5967 329.964 66.9959 330.407L67.6434 331.125C68.06 331.551 68.8029 331.48 69.3029 330.967C69.7786 330.478 69.8659 329.758 69.5022 329.32L68.8548 328.602C68.455 328.159 67.7148 328.204 67.2013 328.702Z" fill="#3A556A"/>
<path d="M63.3797 332.309C62.8666 332.808 62.7746 333.571 63.1741 334.014L63.8219 334.733C64.2212 335.176 64.9611 335.131 65.4744 334.633C65.9878 334.134 66.0802 333.371 65.6808 332.928L65.0331 332.21C64.6344 331.766 63.8946 331.81 63.3808 332.308C63.3803 332.308 63.3801 332.308 63.3797 332.309Z" fill="#3A556A"/>
<path d="M59.5574 335.915C59.0444 336.414 58.9523 337.177 59.3518 337.621L59.9996 338.339C60.3989 338.782 61.1388 338.737 61.6522 338.239C62.1655 337.741 62.2579 336.977 61.8586 336.534L61.2108 335.816C60.8121 335.372 60.0723 335.416 59.5585 335.914C59.5581 335.915 59.5576 335.915 59.5574 335.915Z" fill="#3A556A"/>
<path d="M55.7342 339.522C55.2211 340.021 55.1291 340.784 55.5286 341.227L56.1763 341.946C56.5763 342.388 57.3163 342.342 57.8289 341.843C58.3407 341.345 58.4329 340.584 58.0351 340.141L57.3873 339.423C56.988 338.979 56.248 339.024 55.7342 339.522Z" fill="#3A556A"/>
<path d="M51.9119 343.128C51.3988 343.627 51.3068 344.39 51.7063 344.834L52.3541 345.552C52.7541 345.995 53.4941 345.949 54.0067 345.45C54.5184 344.952 54.6106 344.19 54.2128 343.748L53.565 343.029C53.1657 342.586 52.4258 342.63 51.9119 343.128Z" fill="#3A556A"/>
<path d="M48.0896 346.735C47.5766 347.234 47.4845 347.997 47.884 348.44L48.5318 349.159C48.9318 349.601 49.6718 349.555 50.1844 349.056C50.6961 348.558 50.7884 347.797 50.3905 347.354L49.7428 346.636C49.3433 346.192 48.6033 346.237 48.0896 346.735Z" fill="#3A556A"/>
<path d="M44.2654 350.342C43.7521 350.84 43.6597 351.604 44.059 352.047L44.0598 352.048L44.7076 352.766C45.1076 353.208 45.8476 353.162 46.3602 352.664C46.8719 352.166 46.9641 351.404 46.5663 350.962L45.9185 350.243C45.5193 349.8 44.7793 349.844 44.2654 350.342Z" fill="#3A556A"/>
<path d="M40.4441 353.947C39.9308 354.446 39.8384 355.209 40.2377 355.652L40.2385 355.653L40.8863 356.371C41.2863 356.814 42.0263 356.768 42.5389 356.269C43.0507 355.771 43.1429 355.01 42.7451 354.567L42.0973 353.848C41.6978 353.405 40.9578 353.449 40.4441 353.947Z" fill="#3A556A"/>
</svg>
