<svg width="19" height="17" viewBox="0 0 19 17" fill="none" xmlns="http://www.w3.org/2000/svg">
<path d="M16.651 2.03711C15.7354 1.05306 14.4526 0.493146 13.1085 0.49107C11.7634 0.492627 10.4792 1.05224 9.56223 2.03648L9.24974 2.36669L8.93724 2.03648C7.11781 0.0782721 4.05539 -0.0341845 2.09722 1.78525C2.01045 1.8659 1.92665 1.94967 1.84599 2.03648C-0.0840802 4.11829 -0.0840802 7.33564 1.84599 9.41746L8.79049 16.7409C9.03075 16.9945 9.43113 17.0054 9.68477 16.7651C9.69308 16.7573 9.70116 16.7492 9.70901 16.7409L16.651 9.41746C18.5809 7.33587 18.5809 4.1187 16.651 2.03711ZM15.7356 8.54639H15.735L9.24974 15.3865L2.76388 8.54639C1.28942 6.95569 1.28942 4.49762 2.76388 2.90692C4.10287 1.45566 6.36486 1.36466 7.81612 2.70365C7.88658 2.76867 7.95437 2.83646 8.01939 2.90692L8.79049 3.72043C9.04462 3.97292 9.45489 3.97292 9.70901 3.72043L10.4801 2.90755C11.8191 1.45629 14.0811 1.36529 15.5324 2.70428C15.6028 2.7693 15.6706 2.83709 15.7356 2.90755C17.2229 4.50077 17.2338 6.96332 15.7356 8.54639Z" fill="#6318DD"/>
</svg>
