<svg width="20" height="20" viewBox="0 0 20 20" fill="none" xmlns="http://www.w3.org/2000/svg">
<path fill-rule="evenodd" clip-rule="evenodd" d="M1.44531 9.94196C1.44531 6.39653 1.44531 4.62382 2.29016 3.34698C2.66742 2.77681 3.15572 2.28852 3.72589 1.91125C5.00272 1.06641 6.77544 1.06641 10.3209 1.06641C13.8663 1.06641 15.639 1.06641 16.9158 1.91125C17.486 2.28852 17.9743 2.77681 18.3516 3.34698C19.1964 4.62382 19.1964 6.39653 19.1964 9.94196C19.1964 13.4874 19.1964 15.2601 18.3516 16.5369C17.9743 17.1071 17.486 17.5954 16.9158 17.9727C15.639 18.8175 13.8663 18.8175 10.3209 18.8175C6.77544 18.8175 5.00272 18.8175 3.72589 17.9727C3.15572 17.5954 2.66742 17.1071 2.29016 16.5369C1.44531 15.2601 1.44531 13.4874 1.44531 9.94196ZM14.9154 9.94197C14.9154 12.4797 12.8581 14.537 10.3204 14.537C7.78265 14.537 5.72541 12.4797 5.72541 9.94197C5.72541 7.40424 7.78265 5.34699 10.3204 5.34699C12.8581 5.34699 14.9154 7.40424 14.9154 9.94197ZM10.3204 12.9823C11.9995 12.9823 13.3608 11.6211 13.3608 9.94197C13.3608 8.26282 11.9995 6.9016 10.3204 6.9016C8.64124 6.9016 7.28002 8.26282 7.28002 9.94197C7.28002 11.6211 8.64124 12.9823 10.3204 12.9823ZM15.0974 6.1963C15.6938 6.1963 16.1774 5.71276 16.1774 5.11628C16.1774 4.51981 15.6938 4.03627 15.0974 4.03627C14.5009 4.03627 14.0173 4.51981 14.0173 5.11628C14.0173 5.71276 14.5009 6.1963 15.0974 6.1963Z" fill="url(#paint0_linear_29_533)"/>
<defs>
<linearGradient id="paint0_linear_29_533" x1="-0.374495" y1="1.06641" x2="20.5147" y2="20.3765" gradientUnits="userSpaceOnUse">
<stop stop-color="#6318DD"/>
<stop offset="1" stop-color="#D03BE8"/>
</linearGradient>
</defs>
</svg>
