<svg width="19" height="18" viewBox="0 0 19 18" fill="none" xmlns="http://www.w3.org/2000/svg">
<path d="M0.878906 2.94623C0.878906 2.377 1.07881 1.90739 1.47861 1.53741C1.8784 1.16741 2.39815 0.982422 3.03782 0.982422C3.66609 0.982422 4.17439 1.16456 4.56277 1.52887C4.96257 1.90456 5.16247 2.39407 5.16247 2.99746C5.16247 3.54391 4.96829 3.99927 4.57991 4.36358C4.18011 4.73927 3.65466 4.92711 3.00356 4.92711H2.98642C2.35816 4.92711 1.84985 4.73927 1.46147 4.36358C1.07309 3.9879 0.878906 3.51544 0.878906 2.94623ZM1.10165 17.8882V6.48108H4.90546V17.8882H1.10165ZM7.01297 17.8882H10.8168V11.5187C10.8168 11.1202 10.8625 10.8128 10.9539 10.5965C11.1138 10.2095 11.3565 9.88215 11.6821 9.61463C12.0076 9.34709 12.416 9.21333 12.9072 9.21333C14.1865 9.21333 14.8262 10.0728 14.8262 11.7919V17.8882H18.63V11.3479C18.63 9.66301 18.2302 8.38512 17.4306 7.51421C16.631 6.64331 15.5744 6.20785 14.2608 6.20785C12.7872 6.20785 11.6392 6.83969 10.8168 8.10335V8.13751H10.7996L10.8168 8.10335V6.48108H7.01297C7.03581 6.84537 7.04724 7.97811 7.04724 9.87932C7.04724 11.7805 7.03581 14.4501 7.01297 17.8882Z" fill="url(#paint0_linear_29_543)"/>
<defs>
<linearGradient id="paint0_linear_29_543" x1="-0.940901" y1="0.982422" x2="19.0062" y2="20.3436" gradientUnits="userSpaceOnUse">
<stop stop-color="#6318DD"/>
<stop offset="1" stop-color="#D03BE8"/>
</linearGradient>
</defs>
</svg>
