<svg width="15" height="19" viewBox="0 0 15 19" fill="none" xmlns="http://www.w3.org/2000/svg">
<path d="M14.2369 8.74735C14.2369 14.0518 8.80385 17.3197 7.67479 17.9422C7.61225 17.9767 7.54198 17.9948 7.47055 17.9948C7.39912 17.9948 7.32885 17.9767 7.2663 17.9422C6.1364 17.3197 0.705078 14.0518 0.705078 8.74735C0.705078 4.51867 3.24229 1.55859 7.47097 1.55859C11.6997 1.55859 14.2369 4.51867 14.2369 8.74735Z" stroke="#170F49" stroke-width="1.38064" stroke-linecap="round" stroke-linejoin="round"/>
<path d="M4.08789 8.32484C4.08789 9.22205 4.44431 10.0825 5.07873 10.7169C5.71316 11.3514 6.57362 11.7078 7.47084 11.7078C8.36805 11.7078 9.22852 11.3514 9.86294 10.7169C10.4974 10.0825 10.8538 9.22205 10.8538 8.32484C10.8538 7.42763 10.4974 6.56716 9.86294 5.93274C9.22852 5.29831 8.36805 4.94189 7.47084 4.94189C6.57362 4.94189 5.71316 5.29831 5.07873 5.93274C4.44431 6.56716 4.08789 7.42763 4.08789 8.32484V8.32484Z" stroke="#170F49" stroke-width="1.38064" stroke-linecap="round" stroke-linejoin="round"/>
</svg>
