<svg width="27" height="27" viewBox="0 0 27 27" fill="none" xmlns="http://www.w3.org/2000/svg">
<g clip-path="url(#clip0_26_130)">
<path d="M13.4066 8.9895C12.6323 9.0052 11.8894 9.295 11.3135 9.80609C10.7376 10.3172 10.3669 11.0155 10.2691 11.7738C10.1712 12.5321 10.3527 13.2999 10.7804 13.9371C11.2081 14.5744 11.8535 15.0388 12.5991 15.2456V24.1316C12.5991 24.343 12.6842 24.5457 12.8356 24.6951C12.987 24.8446 13.1924 24.9286 13.4066 24.9286C13.6207 24.9286 13.8261 24.8446 13.9775 24.6951C14.1289 24.5457 14.214 24.343 14.214 24.1316V15.2456C14.9596 15.0388 15.6051 14.5744 16.0328 13.9371C16.4605 13.2999 16.6419 12.5321 16.5441 11.7738C16.4462 11.0155 16.0755 10.3172 15.4996 9.80609C14.9237 9.295 14.1809 9.0052 13.4066 8.9895Z" fill="#E960F5"/>
<path d="M19.2191 5.56256C19.0555 5.45416 18.8575 5.40853 18.6622 5.43425C18.4669 5.45998 18.2879 5.5553 18.1588 5.70225C18.0298 5.8492 17.9597 6.03765 17.9616 6.2321C17.9636 6.42656 18.0375 6.61359 18.1694 6.75799C18.9562 7.4313 19.5872 8.26364 20.0196 9.19864C20.4521 10.1336 20.6759 11.1495 20.6759 12.1773C20.6759 13.2051 20.4521 14.2209 20.0196 15.1559C19.5872 16.0909 18.9562 16.9232 18.1694 17.5965C18.0745 17.6595 17.9942 17.7416 17.9338 17.8375C17.8734 17.9334 17.8343 18.0408 17.8192 18.1527C17.8041 18.2646 17.8132 18.3784 17.846 18.4866C17.8788 18.5948 17.9345 18.6948 18.0094 18.7801C18.0843 18.8654 18.1767 18.9341 18.2805 18.9815C18.3843 19.0289 18.4972 19.054 18.6115 19.0551C18.7259 19.0562 18.8392 19.0333 18.944 18.988C19.0487 18.9426 19.1425 18.8758 19.2191 18.792C20.1777 17.9691 20.9463 16.9528 21.473 15.8117C21.9996 14.6706 22.2722 13.4312 22.2722 12.1773C22.2722 10.9233 21.9996 9.68397 21.473 8.54287C20.9463 7.40176 20.1777 6.38546 19.2191 5.56256ZM6.13879 12.1773C6.13837 11.1497 6.36164 10.1341 6.79348 9.19908C7.22532 8.26409 7.85566 7.43161 8.64182 6.75799C8.77377 6.61359 8.84769 6.42656 8.84964 6.2321C8.8516 6.03765 8.78145 5.8492 8.65242 5.70225C8.52339 5.5553 8.34437 5.45998 8.14909 5.43425C7.9538 5.40853 7.75573 5.45416 7.59216 5.56256C6.63357 6.38546 5.86499 7.40176 5.3383 8.54287C4.81161 9.68397 4.53906 10.9233 4.53906 12.1773C4.53906 13.4312 4.81161 14.6706 5.3383 15.8117C5.86499 16.9528 6.63357 17.9691 7.59216 18.792C7.75573 18.9004 7.9538 18.946 8.14909 18.9203C8.34437 18.8946 8.52339 18.7992 8.65242 18.6523C8.78145 18.5053 8.8516 18.3169 8.84964 18.1224C8.84769 17.928 8.77377 17.7409 8.64182 17.5965C7.85566 16.9229 7.22532 16.0904 6.79348 15.1555C6.36164 14.2205 6.13837 13.2048 6.13879 12.1773Z" fill="#E960F5"/>
<path d="M22.0856 2.73353C22.0061 2.66289 21.9133 2.60839 21.8124 2.57317C21.7115 2.53794 21.6046 2.52266 21.4978 2.52821C21.391 2.53376 21.2863 2.56003 21.1897 2.60551C21.0932 2.651 21.0066 2.71481 20.9351 2.7933C20.8635 2.87179 20.8083 2.96343 20.7726 3.06298C20.7369 3.16254 20.7214 3.26805 20.727 3.37351C20.7327 3.47896 20.7593 3.58229 20.8054 3.6776C20.8514 3.7729 20.9161 3.85831 20.9956 3.92896C22.1586 4.97458 23.0877 6.2483 23.7235 7.66864C24.3592 9.08898 24.6876 10.6247 24.6876 12.1774C24.6876 13.7302 24.3592 15.2659 23.7235 16.6862C23.0877 18.1065 22.1586 19.3803 20.9956 20.4259C20.9161 20.4965 20.8514 20.5819 20.8054 20.6772C20.7593 20.7725 20.7327 20.8759 20.727 20.9813C20.7214 21.0868 20.7369 21.1923 20.7726 21.2919C20.8083 21.3914 20.8635 21.483 20.9351 21.5615C21.0066 21.64 21.0932 21.7038 21.1897 21.7493C21.2863 21.7948 21.391 21.8211 21.4978 21.8266C21.6046 21.8322 21.7115 21.8169 21.8124 21.7817C21.9133 21.7464 22.0061 21.692 22.0856 21.6213C23.4139 20.4264 24.4749 18.971 25.2009 17.3483C25.9269 15.7256 26.3019 13.9712 26.3019 12.1973C26.3019 10.4235 25.9269 8.66909 25.2009 7.04638C24.4749 5.42368 23.4139 3.96833 22.0856 2.77338V2.73353ZM2.10186 12.1774C2.10714 10.6234 2.4401 9.0875 3.07954 7.66742C3.71898 6.24734 4.65091 4.97418 5.81601 3.92896C5.97662 3.78629 6.07323 3.58649 6.08458 3.37351C6.09594 3.16053 6.02112 2.95182 5.87657 2.7933C5.73202 2.63478 5.5296 2.53942 5.31382 2.52821C5.09804 2.517 4.8866 2.59086 4.72599 2.73353C3.39775 3.92848 2.33672 5.38383 1.61073 7.00654C0.884745 8.62925 0.509766 10.3836 0.509766 12.1575C0.509766 13.9314 0.884745 15.6857 1.61073 17.3085C2.33672 18.9312 3.39775 20.3865 4.72599 21.5815C4.80551 21.6521 4.89836 21.7066 4.99922 21.7418C5.10008 21.7771 5.20698 21.7923 5.31382 21.7868C5.42066 21.7812 5.52535 21.755 5.62191 21.7095C5.71846 21.664 5.805 21.6002 5.87657 21.5217C5.94814 21.4432 6.00335 21.3516 6.03904 21.252C6.07473 21.1525 6.09021 21.0469 6.08458 20.9415C6.07896 20.836 6.05235 20.7327 6.00627 20.6374C5.96019 20.5421 5.89554 20.4567 5.81601 20.386C4.6559 19.3453 3.72691 18.0786 3.08764 16.6658C2.44838 15.253 2.11273 13.7247 2.10186 12.1774Z" fill="#E960F5"/>
</g>
<defs>
<clipPath id="clip0_26_130">
<rect width="25.8376" height="25.5025" fill="white" transform="translate(0.487305 0.980225)"/>
</clipPath>
</defs>
</svg>
