<svg width="18" height="16" viewBox="0 0 18 16" fill="none" xmlns="http://www.w3.org/2000/svg">
<path d="M11.8734 0.744408V0.741211H12.7058L13.0099 0.801951C13.2126 0.841384 13.3967 0.893062 13.5621 0.956999C13.7275 1.02094 13.8876 1.09553 14.0423 1.18078C14.197 1.26602 14.3374 1.35288 14.4633 1.44132C14.5881 1.52871 14.7002 1.62142 14.7994 1.71945C14.8976 1.81855 15.0507 1.84413 15.2588 1.79617C15.4669 1.74822 15.691 1.68161 15.9311 1.59637C16.1712 1.51113 16.4086 1.41522 16.6433 1.30865C16.8781 1.20209 17.0211 1.13442 17.0723 1.10565C17.1225 1.07583 17.1492 1.05984 17.1524 1.0577L17.1556 1.0529L17.1716 1.04491L17.1876 1.03692L17.2036 1.02893L17.2196 1.02094L17.2228 1.01614L17.2276 1.01294L17.2324 1.00975L17.2356 1.00495L17.2516 1.00016L17.2676 0.996959L17.2644 1.02094L17.2596 1.04491L17.2516 1.06889L17.2436 1.09287L17.2356 1.10885L17.2276 1.12483L17.2196 1.14881C17.2143 1.16479 17.2089 1.1861 17.2036 1.21275C17.1982 1.23939 17.1476 1.34594 17.0515 1.53243C16.9555 1.71892 16.8354 1.90806 16.6914 2.09988C16.5473 2.29169 16.4182 2.4366 16.304 2.53465C16.1888 2.63375 16.1125 2.70301 16.0751 2.74244C16.0378 2.78293 15.9924 2.82022 15.9391 2.85433L15.859 2.90708L15.843 2.91507L15.827 2.92307L15.8238 2.92786L15.819 2.93106L15.8142 2.93425L15.811 2.93905L15.795 2.94704L15.779 2.95503L15.7758 2.95983L15.771 2.96303L15.7662 2.96622L15.763 2.97102L15.7598 2.97581L15.755 2.97901L15.7502 2.98221L15.747 2.987H15.827L16.2752 2.8911C16.574 2.82716 16.8594 2.74991 17.1315 2.65933L17.5637 2.51547L17.6117 2.49948L17.6357 2.49149L17.6518 2.4835L17.6678 2.47551L17.6838 2.46751L17.6998 2.45952L17.7318 2.45473L17.7638 2.45153V2.4835L17.7558 2.48669L17.7478 2.49149L17.7446 2.49629L17.7398 2.49948L17.735 2.50268L17.7318 2.50747L17.7286 2.51227L17.7238 2.51547L17.719 2.51866L17.7158 2.52346L17.7126 2.52825L17.7078 2.53145L17.6998 2.54744L17.6918 2.56342L17.687 2.56662C17.6848 2.56981 17.6171 2.66038 17.4837 2.83835C17.3503 3.01737 17.2783 3.10794 17.2676 3.11008C17.2569 3.11328 17.242 3.12926 17.2228 3.15803C17.2046 3.18786 17.0915 3.30669 16.8834 3.51448C16.6754 3.72228 16.4716 3.90715 16.272 4.06914C16.0714 4.23218 15.97 4.43251 15.9679 4.67015C15.9647 4.90672 15.9524 5.1742 15.9311 5.47256C15.9097 5.77094 15.8697 6.09328 15.811 6.43961C15.7523 6.78594 15.6616 7.17755 15.5389 7.61445C15.4162 8.05135 15.2668 8.4776 15.0907 8.8932C14.9147 9.30879 14.7306 9.68175 14.5385 10.0121C14.3464 10.3424 14.1704 10.6222 14.0103 10.8513C13.8502 11.0804 13.6875 11.2962 13.5221 11.4986C13.3567 11.7011 13.1476 11.9292 12.8947 12.1828C12.6407 12.4353 12.502 12.5738 12.4785 12.5984C12.454 12.6218 12.3494 12.7092 12.1648 12.8605C11.9812 13.0129 11.7838 13.1653 11.5725 13.3176C11.3623 13.469 11.1692 13.5952 10.9931 13.6965C10.817 13.7977 10.6047 13.9133 10.356 14.0433C10.1085 14.1744 9.84063 14.2959 9.55251 14.4078C9.2644 14.5197 8.96028 14.6236 8.64015 14.7195C8.32002 14.8154 8.01057 14.89 7.71178 14.9432C7.413 14.9965 7.07419 15.0418 6.69537 15.0791L6.12714 15.1351V15.1431H5.08673V15.1351L4.95067 15.1271C4.85998 15.1217 4.78528 15.1164 4.72658 15.1111C4.6679 15.1058 4.44647 15.0764 4.06232 15.0232C3.67816 14.9699 3.37671 14.9166 3.15795 14.8633C2.93921 14.8101 2.61374 14.7088 2.18156 14.5596C1.74939 14.4104 1.37964 14.2596 1.07232 14.1073C0.766069 13.9559 0.573992 13.86 0.496089 13.8196C0.419258 13.7801 0.332823 13.7311 0.236785 13.6725L0.0927273 13.5846L0.0895421 13.5798L0.0847241 13.5766L0.0799222 13.5734L0.0767209 13.5686L0.0607145 13.5606L0.0447081 13.5526L0.0415228 13.5478L0.0367049 13.5446L0.031903 13.5414L0.0287017 13.5366L0.0255164 13.5318L0.0206985 13.5286H0.0126953V13.4967L0.0287017 13.4999L0.0447081 13.5047L0.116737 13.5127C0.164756 13.518 0.29548 13.526 0.508894 13.5366C0.722323 13.5473 0.94907 13.5473 1.18917 13.5366C1.42926 13.526 1.6747 13.502 1.92546 13.4647C2.17623 13.4274 2.47235 13.3635 2.81382 13.2729C3.1553 13.1823 3.46902 13.0747 3.75501 12.95C4.03992 12.8243 4.24266 12.7305 4.36325 12.6687C4.48276 12.6079 4.66523 12.495 4.91066 12.3298L5.2788 12.0821L5.282 12.0773L5.28681 12.0741L5.29162 12.0709L5.29481 12.0661L5.29801 12.0613L5.30281 12.0581L5.30763 12.0549L5.31082 12.0501L5.32682 12.0453L5.34283 12.0421L5.34603 12.0261L5.35083 12.0101L5.35565 12.0069L5.35883 12.0021L5.23078 11.9941C5.14542 11.9888 5.06272 11.9835 4.98268 11.9782C4.90265 11.9728 4.77727 11.9489 4.60653 11.9062C4.43581 11.8636 4.25174 11.7997 4.05431 11.7144C3.85691 11.6292 3.66483 11.5279 3.47808 11.4107C3.29135 11.2935 3.15635 11.196 3.07312 11.1182C2.99096 11.0415 2.88424 10.9328 2.75299 10.7921C2.62281 10.6504 2.50969 10.5049 2.41366 10.3558C2.31762 10.2066 2.22585 10.0345 2.13836 9.83947L2.00549 9.54855L1.99749 9.52458L1.98949 9.5006L1.98468 9.48461L1.98148 9.46863L2.00549 9.47183L2.0295 9.47662L2.20557 9.5006C2.32296 9.51658 2.50704 9.52191 2.75779 9.51658C3.00857 9.51126 3.18196 9.5006 3.278 9.48461C3.37404 9.46863 3.43274 9.45797 3.45407 9.45265L3.48609 9.44465L3.5261 9.43666L3.56612 9.42867L3.56932 9.42387L3.57412 9.42068L3.57894 9.41748L3.58212 9.41268L3.55011 9.40469L3.5181 9.3967L3.48609 9.38871L3.45407 9.38072L3.42206 9.37272C3.40072 9.3674 3.36338 9.35674 3.31001 9.34076C3.25667 9.32477 3.11261 9.26616 2.87784 9.16493C2.64309 9.0637 2.45635 8.96513 2.31762 8.86922C2.17855 8.77304 2.04594 8.66785 1.92066 8.55433C1.79581 8.43924 1.6587 8.29112 1.50929 8.10997C1.35991 7.92882 1.22652 7.71835 1.10913 7.47859C0.991759 7.23882 0.903724 7.00972 0.845028 6.79126C0.786569 6.57409 0.748 6.35206 0.729798 6.12791L0.700971 5.79224L0.716977 5.79544L0.732984 5.80024L0.74899 5.80823L0.764996 5.81622L0.781003 5.82421L0.797009 5.83221L1.04511 5.9441C1.21052 6.01869 1.41593 6.08263 1.66136 6.13591C1.9068 6.18918 2.05351 6.2185 2.10153 6.22382L2.17356 6.23181H2.31762L2.31443 6.22702L2.30961 6.22382L2.30481 6.22062L2.30161 6.21583L2.29843 6.21103L2.29361 6.20784L2.28881 6.20464L2.2856 6.19984L2.2696 6.19185L2.25359 6.18386L2.25041 6.17906L2.24559 6.17587L2.24079 6.17267L2.23759 6.16788L2.22158 6.15988L2.20557 6.15189L2.20239 6.1471C2.19919 6.14495 2.1533 6.11086 2.06472 6.0448C1.97721 5.97766 1.88544 5.89082 1.78941 5.78425C1.69337 5.67769 1.59733 5.5658 1.50129 5.44858C1.40508 5.3311 1.31938 5.20541 1.24519 5.07295C1.1705 4.93975 1.09153 4.77031 1.00829 4.56465C0.926133 4.36005 0.863708 4.15386 0.821019 3.94606C0.778346 3.73826 0.754336 3.53314 0.74899 3.33066C0.74366 3.12819 0.74899 2.95503 0.764996 2.81118C0.781003 2.66732 0.813016 2.5048 0.861035 2.32366C0.909054 2.14251 0.978426 1.95069 1.06912 1.74822L1.20517 1.44452L1.21318 1.42054L1.22118 1.39657L1.226 1.39337L1.22918 1.38857L1.23238 1.38378L1.23719 1.38058L1.242 1.38378L1.24519 1.38857L1.24839 1.39337L1.25319 1.39657L1.25801 1.39976L1.26119 1.40456L1.2644 1.40935L1.2692 1.41255L1.2772 1.42854L1.2852 1.44452L1.29002 1.44772L1.29321 1.45251L1.50929 1.69228C1.65335 1.85212 1.82409 2.03062 2.0215 2.22775C2.21892 2.42488 2.32829 2.52718 2.34963 2.53465C2.37098 2.54317 2.39765 2.56767 2.42966 2.60818C2.46168 2.64761 2.56839 2.74192 2.74979 2.8911C2.93121 3.04028 3.16863 3.21345 3.46208 3.41059C3.75554 3.60772 4.081 3.8022 4.43847 3.99401C4.79595 4.18582 5.18011 4.35898 5.59093 4.5135C6.00176 4.66802 6.28988 4.76925 6.45527 4.8172C6.62068 4.86516 6.90345 4.92642 7.30361 5.00102C7.70377 5.07562 8.00524 5.12357 8.20797 5.14488C8.41073 5.16619 8.54945 5.17845 8.62414 5.18164L8.73619 5.18484L8.733 5.16087L8.72818 5.13689L8.69617 4.93709C8.67483 4.80389 8.66416 4.6174 8.66416 4.37764C8.66416 4.13787 8.68284 3.91676 8.72018 3.71429C8.75754 3.51181 8.81356 3.30669 8.88825 3.09889C8.96295 2.8911 9.03605 2.72432 9.10753 2.59858C9.18011 2.47391 9.27507 2.33165 9.39245 2.1718C9.50984 2.01196 9.6619 1.8468 9.84863 1.67629C10.0354 1.50579 10.2488 1.35394 10.4889 1.22074C10.729 1.08754 10.9504 0.986298 11.1532 0.917038C11.3559 0.847778 11.5266 0.802479 11.6654 0.781172C11.8041 0.759865 11.8734 0.747605 11.8734 0.744408Z" fill="url(#paint0_linear_29_532)"/>
<defs>
<linearGradient id="paint0_linear_29_532" x1="-1.80711" y1="0.741211" x2="15.0494" y2="19.9472" gradientUnits="userSpaceOnUse">
<stop stop-color="#6318DD"/>
<stop offset="1" stop-color="#D03BE8"/>
</linearGradient>
</defs>
</svg>
