<svg width="50" height="49" viewBox="0 0 50 49" fill="none" xmlns="http://www.w3.org/2000/svg">
<path d="M31.4824 0.303627C30.163 0.442513 28.913 1.34527 28.2186 2.66468C27.3158 4.4702 20.6493 17.8727 19.3299 19.1921C18.0105 20.5115 16.2744 21.1365 14.33 21.1365V48.9136H38.635C40.0933 48.9136 41.3433 48.0109 41.8988 46.7609C41.8988 46.7609 49.0514 26.553 49.0514 24.6086C49.0514 22.6642 47.5237 21.1365 45.5793 21.1365H35.1628C33.2184 21.1365 31.6907 19.4004 31.6907 17.6643C31.6907 15.9283 34.399 6.69237 34.9545 4.88686C35.5101 3.08134 34.6073 1.13694 32.8018 0.511956C32.3157 0.37307 31.9685 0.234184 31.4824 0.303627ZM0.441406 21.1365V48.9136H7.38569V21.1365H0.441406Z" fill="url(#paint0_linear_28_413)"/>
<defs>
<linearGradient id="paint0_linear_28_413" x1="-4.54199" y1="0.285156" x2="52.6816" y2="53.1627" gradientUnits="userSpaceOnUse">
<stop stop-color="#6318DD"/>
<stop offset="1" stop-color="#D03BE8"/>
</linearGradient>
</defs>
</svg>
