<svg width="17" height="21" viewBox="0 0 17 21" fill="none" xmlns="http://www.w3.org/2000/svg">
<path fill-rule="evenodd" clip-rule="evenodd" d="M0.00878906 8.95425C0.00878906 4.41794 3.79952 0.751465 8.38474 0.751465C12.983 0.751465 16.7737 4.41794 16.7737 8.95425C16.7737 11.2401 15.9424 13.3622 14.5741 15.161C13.0645 17.1451 11.204 18.8739 9.10968 20.2307C8.6304 20.5443 8.19786 20.568 7.67174 20.2307C5.56561 18.8739 3.70505 17.1451 2.20845 15.161C0.839127 13.3622 0.00878906 11.2401 0.00878906 8.95425ZM5.62428 9.20967C5.62428 10.7293 6.86436 11.9245 8.38474 11.9245C9.90621 11.9245 11.1583 10.7293 11.1583 9.20967C11.1583 7.70181 9.90621 6.44841 8.38474 6.44841C6.86436 6.44841 5.62428 7.70181 5.62428 9.20967Z" fill="#E960F5"/>
</svg>
