<svg width="19" height="19" viewBox="0 0 19 19" fill="none" xmlns="http://www.w3.org/2000/svg">
<path d="M11.6925 17.0201L11.7014 17.0263C12.4776 17.5205 13.3991 17.7351 14.3138 17.6347C15.2284 17.5343 16.0814 17.1248 16.7318 16.4739L17.2968 15.9089C17.4221 15.7837 17.5214 15.6352 17.5892 15.4716C17.6569 15.3081 17.6918 15.1328 17.6918 14.9558C17.6918 14.7788 17.6569 14.6035 17.5892 14.44C17.5214 14.2764 17.4221 14.1278 17.2968 14.0027L14.9137 11.6214C14.7886 11.4962 14.64 11.3968 14.4765 11.3291C14.3129 11.2613 14.1376 11.2264 13.9606 11.2264C13.7836 11.2264 13.6083 11.2613 13.4448 11.3291C13.2812 11.3968 13.1327 11.4962 13.0075 11.6214C12.7549 11.874 12.4122 12.0159 12.0549 12.0159C11.6976 12.0159 11.355 11.874 11.1023 11.6214L7.29176 7.80994C7.03915 7.55726 6.89725 7.2146 6.89725 6.85731C6.89725 6.50002 7.03915 6.15736 7.29176 5.90468C7.41697 5.77955 7.5163 5.63097 7.58406 5.46743C7.65183 5.3039 7.68671 5.12862 7.68671 4.9516C7.68671 4.77458 7.65183 4.59929 7.58406 4.43576C7.5163 4.27223 7.41697 4.12365 7.29176 3.99852L4.9095 1.61716C4.65682 1.36456 4.31416 1.22266 3.95687 1.22266C3.59958 1.22266 3.25692 1.36456 3.00424 1.61716L2.43832 2.18219C1.7876 2.8327 1.37828 3.68576 1.27799 4.6004C1.17771 5.51504 1.39247 6.43652 1.88678 7.21258L1.89217 7.22156C4.50275 11.084 7.82954 14.4102 11.6925 17.0201V17.0201Z" stroke="#170F49" stroke-width="1.38064" stroke-linecap="round" stroke-linejoin="round"/>
</svg>
