<svg width="17" height="18" viewBox="0 0 17 18" fill="none" xmlns="http://www.w3.org/2000/svg">
<path d="M8.53379 0.226562C10.5482 0.226563 12.4801 1.02678 13.9045 2.45118C15.3289 3.87558 16.1291 5.80747 16.1291 7.82188C16.1291 11.4512 13.6796 14.7918 8.87304 17.8502C8.77161 17.9146 8.65394 17.9488 8.53379 17.9488C8.41364 17.9488 8.29597 17.9146 8.19453 17.8502C3.38796 14.7918 0.938477 11.4512 0.938477 7.82188C0.938477 5.80747 1.73869 3.87558 3.16309 2.45118C4.58749 1.02678 6.51939 0.226563 8.53379 0.226562ZM8.53379 5.2901C7.86232 5.2901 7.21835 5.55684 6.74356 6.03164C6.26876 6.50644 6.00202 7.15041 6.00202 7.82188C6.00202 8.49334 6.26876 9.13731 6.74356 9.61211C7.21835 10.0869 7.86232 10.3536 8.53379 10.3536C9.20526 10.3536 9.84922 10.0869 10.324 9.61211C10.7988 9.13731 11.0656 8.49334 11.0656 7.82188C11.0656 7.15041 10.7988 6.50644 10.324 6.03164C9.84922 5.55684 9.20526 5.2901 8.53379 5.2901Z" fill="white"/>
</svg>
