<svg width="15" height="15" viewBox="0 0 15 15" fill="none" xmlns="http://www.w3.org/2000/svg">
<path d="M0.236156 13.688H1.65216V5.9C1.65216 5.76967 1.75782 5.664 1.88816 5.664H5.19216V0.236C5.19216 0.105669 5.29782 0 5.42816 0H11.5642C11.6945 0 11.8002 0.105669 11.8002 0.236V13.688H13.9242C14.0545 13.688 14.1602 13.7937 14.1602 13.924C14.1602 14.0543 14.0545 14.16 13.9242 14.16H0.236156C0.105825 14.16 0.000156403 14.0543 0.000156403 13.924C0.000156403 13.7937 0.105825 13.688 0.236156 13.688ZM9.20416 13.688H10.1482V11.564C10.1482 11.4337 10.0425 11.328 9.91216 11.328H9.44016C9.30983 11.328 9.20416 11.4337 9.20416 11.564V13.688ZM8.26016 5.9V13.688H8.73216V11.564C8.73216 11.173 9.04913 10.856 9.44016 10.856H9.91216C10.3032 10.856 10.6202 11.173 10.6202 11.564V13.688H11.3282V0.472H5.66416V5.664H8.02416C8.15449 5.664 8.26016 5.76967 8.26016 5.9ZM2.12416 13.688H7.78816V6.136H2.12416V13.688Z" fill="#84829A"/>
</svg>
