<svg width="14" height="13" viewBox="0 0 14 13" fill="none" xmlns="http://www.w3.org/2000/svg">
<path d="M10.5621 7.8673C10.3942 8.03 10.3171 8.26531 10.3553 8.49608L10.9316 11.6853C10.9802 11.9556 10.8661 12.2292 10.6399 12.3854C10.4182 12.5475 10.1233 12.5669 9.88149 12.4373L7.01052 10.9399C6.91069 10.8867 6.79984 10.8582 6.6864 10.855H6.51074C6.4498 10.864 6.39017 10.8835 6.33572 10.9133L3.4641 12.4178C3.32214 12.4891 3.16138 12.5144 3.00386 12.4891C2.62011 12.4165 2.36406 12.0509 2.42694 11.6652L3.00386 8.47598C3.0421 8.24327 2.96497 8.00667 2.79708 7.84137L0.456348 5.5726C0.260586 5.38267 0.192522 5.09745 0.281977 4.84011C0.368839 4.58341 0.59053 4.39607 0.858246 4.35394L4.07991 3.88657C4.32493 3.86129 4.54014 3.7122 4.65034 3.49181L6.06995 0.581291C6.10365 0.516469 6.14708 0.456832 6.19959 0.406271L6.25793 0.360895C6.2884 0.327188 6.3234 0.299314 6.36229 0.276627L6.43295 0.250698L6.54315 0.205322H6.81605C7.05978 0.230603 7.27434 0.376453 7.38648 0.594255L8.82489 3.49181C8.9286 3.70377 9.1302 3.85092 9.36291 3.88657L12.5846 4.35394C12.8568 4.39283 13.0843 4.58082 13.1745 4.84011C13.2594 5.10004 13.1861 5.38526 12.9865 5.5726L10.5621 7.8673Z" fill="#FFCD6B"/>
</svg>
