<svg width="20" height="14" viewBox="0 0 20 14" fill="none" xmlns="http://www.w3.org/2000/svg">
<path d="M10.6059 13.825L6.59983 13.7501C5.30277 13.724 4.00248 13.7761 2.73085 13.5058C0.796412 13.1019 0.659369 11.1218 0.515969 9.46085C0.318377 7.12575 0.394871 4.74827 0.767752 2.43267C0.978255 1.13337 1.80667 0.358069 3.08779 0.273701C7.4125 -0.0324804 11.766 0.00380539 16.0811 0.14665C16.5368 0.159745 16.9957 0.231318 17.4451 0.312786C19.6633 0.710133 19.7174 2.95407 19.8612 4.84304C20.0046 6.7515 19.944 8.66976 19.6699 10.5652C19.45 12.1346 19.0293 13.4507 17.2538 13.5778C15.0293 13.7439 12.8558 13.8776 10.6249 13.8351C10.625 13.825 10.6122 13.825 10.6059 13.825ZM8.2507 9.8517C9.9271 8.86808 11.5715 7.90086 13.2383 6.92383C11.5588 5.94021 9.91751 4.97299 8.2507 3.99596V9.8517Z" fill="url(#paint0_linear_29_547)"/>
<defs>
<linearGradient id="paint0_linear_29_547" x1="-1.59163" y1="0.040039" x2="14.1326" y2="20.6024" gradientUnits="userSpaceOnUse">
<stop stop-color="#6318DD"/>
<stop offset="1" stop-color="#D03BE8"/>
</linearGradient>
</defs>
</svg>
